# xmcd
#
# Track frame offsets: 
#        150
#        13100
#        27090
#        40452
#        54055
#        66737
#        78605
#        91872
#        105237
#        116765
#        129022
#        142767
#        162090
#        175617
#        187695
#        208195
#
# Disc length: 2967 seconds
#
# Revision: 2
# Processed by: cddbd v1.5.2PL0 Copyright (c) Steve Scherf et al.
# Submitted via: ExactAudioCopyFreeDBPlugin 1.0
#
DISCID=c30b9510
DTITLE=Various Artist - Blues
DYEAR=1987
DGENRE=Blues
TTITLE0=Little Tommy Tucker - Hi heeled sneakers
TTITLE1=Ko Ko Taylor - Wang dang doodle
TTITLE2=Buster Brown - Fannie mae
TTITLE3=Laura Lee - Dirty man
TTITLE4=Jimmy McCracklin - The walk
TTITLE5=Little Walter - My babe
TTITLE6=Muddy Waters - I'm your hootchy cootchy man
TTITLE7=Willie Maybon - Poison ivy
TTITLE8=Howlin Wolf - Little red rooster
TTITLE9=Memphis Slim - Rockin' the pad
TTITLE10=Etta James - All i could do was cry
TTITLE11=Muddy Waters - Got my mojo working
TTITLE12=Bo Diddley - You can't judge a book by its cover
TTITLE13=Etta James - I'd rather go blind
TTITLE14=Lowell Fulson - I want to know
TTITLE15=Bo Diddley - Say man
EXTD=
EXTT0=
EXTT1=
EXTT2=
EXTT3=
EXTT4=
EXTT5=
EXTT6=
EXTT7=
EXTT8=
EXTT9=
EXTT10=
EXTT11=
EXTT12=
EXTT13=
EXTT14=
EXTT15=
PLAYORDER=
